<?xml version="1.0"?>
<svg version="1.1" xmlns="http://www.w3.org/2000/svg" width="400" height="100" style=""><path fill="#0102a4" d="M62.3,65.7l4.85-0.1q1.8,0,1.8,0.25q0,0.65-7.3,1.15q-4.65,9.1-4.65,12.4q0,2.3,1.45,2.3q0.55,0,1.375-0.675t1-0.675t0.175,0.25q-0.25,0.9-1.525,1.5t-2.15,0.6t-1.375-0.1q-1.2-0.45-1.2-2.9q0-5.05,3.85-12.85l-6,0.15q-6.7,6.55-13.45,11.5q-10.1,7.35-15.8,7.35q-0.35,0-0.7-0.05q-7.7-0.65-7.7-7.9q0-4.3,2.7-9.1q3.6-6.4,9.85-10.925t11.2-4.525t4.95,3.65q0,2.45-1.5,5.45t-3.05,3.8q-0.15,0.05-0.325,0.05t-0.175-0.1l1.65-2.7q1.7-2.65,1.7-4.65t-0.875-3.225t-2.775-1.225q-3.9,0-9.325,4.35t-8.25,10.7t-2.825,9.9q0,5.35,5.45,5.35q5.2,0,14.1-6.7q3.95-2.95,12.85-11.15q-1.75,0.1-3.25,0.35q-3.2,0.6-3-0.2q0.2-1.85,1.9-1.85q3.3,0.4,5.55,0.4q4.3-3.95,12.85-12.95q5.75-6.05,7-6.05q0.55,0,0.55,0.85t-0.45,2.65t-1,2.2q-1.15,0.8-2.15,2.175t-2.85,5.15t-3.15,6.125z M66.3,53.5l-12.8,12l2.95,0q1.05,0.05,2.6,0.05q1.45-2.85,7.25-12.05z M71.8085,79q1.65,0,4.25-1.75t5.05-4.75q0.6-0.8,0.95-0.8t0.35,0.3t-2.05,2.6q-5,5.5-8.35,5.5q-1.65,0-2.8-0.775t-1.15-2.4t0.85-3.775q1.45-3.4,4.65-8.55q5.85-9.5,8.3-9.5q0.5,0,1.025,0.375t0.575,0.825q-1.15,1.55-4.425,5.95t-4.525,6.325t-1.875,2.875t-0.925,1.475t-0.7,1.375q-0.85,1.7-0.85,3.2t1.65,1.5z M85.117,80.65q-0.55,0-1-0.15q-3.2-0.9-3.2-3.6q0-3.5,4.4-8.1t7.9-4.6q1.15,0,1.875,0.625t0.725,1.525q0,2.8-4.225,5.35t-6.875,2.55q-0.4,0-0.7-0.1q-0.75,1.35-0.75,2.85q0,2.6,2.475,2.6t6.425-3.35q3.05-2.45,5.2-5.2q0.45-0.6,0.775-0.6t0.325,0.3t-0.4,0.85q-2.7,3.55-6.5,6.3t-6.45,2.75z M94.567,66.25q0-0.6-1.275-0.6t-3.625,1.95q-3.15,2.6-4.9,5.45q0.3,0.1,0.65,0.1q1.9,0,5.075-2.025t3.975-4.425q0.1-0.25,0.1-0.45z M115.7255,77.8q-3.6,3-5.975,3t-3.125-3.45q-0.25-1.4-0.35-4.2q-6.1,6.5-9.15,11.75q-0.15,0.2-0.4,0.2q-0.6,0-0.6-0.55q0-0.15,0.1-0.25q4.65-7.35,10.05-12.9q0.2-6.85,0.25-7.7q-1.15,0.25-4.9,5.8q-1.85,2.8-3.25,4.3t-1.675,1.725t-0.55,0.225t-0.275-0.25t1.6-2.025t4.25-5.8t3.8-5.075t2.15-1.05t1.45,0.275t0.325,0.95t-0.2,1.175t-0.125,1.15q-0.3,2.35-0.35,3.85q2.45-2.35,11.05-9.65q0.1-0.1,0.35-0.1t0.65,0.425t0.4,0.85t-0.4,0.825q-1.6,1.3-5.575,4.175t-6.575,5.275q-0.05,1.05-0.05,2.85t0.45,3.3q0.6,1.95,2.2,1.95q2.85,0,8.8-6.85q0.5-0.5,0.75-0.5t0.25,0.325t-0.4,0.775q-3.1,3.65-4.95,5.2z M123.734,80.65q-0.55,0-1-0.15q-3.2-0.9-3.2-3.6q0-3.5,4.4-8.1t7.9-4.6q1.15,0,1.875,0.625t0.725,1.525q0,2.8-4.225,5.35t-6.875,2.55q-0.4,0-0.7-0.1q-0.75,1.35-0.75,2.85q0,2.6,2.475,2.6t6.425-3.35q3.05-2.45,5.2-5.2q0.45-0.6,0.775-0.6t0.325,0.3t-0.4,0.85q-2.7,3.55-6.5,6.3t-6.45,2.75z M133.184,66.25q0-0.6-1.275-0.6t-3.625,1.95q-3.15,2.6-4.9,5.45q0.3,0.1,0.65,0.1q1.9,0,5.075-2.025t3.975-4.425q0.1-0.25,0.1-0.45z M133.4425,85.8q2.4,3,4.15,3q2.85,0,6.15-4.55q2.4-3.35,4.7-8.45l1.9-4.6l-7.35,5.75q-3.4,2.65-5.45,2.65q-1.1,0-1.75-0.75t-0.65-1.7q0-2.15,3.7-7.075t5.4-4.925t1.7,1.15q0,0.45-4.425,5.175t-4.425,6.375q0,0.65,0.85,0.65q1.6,0,6.425-3.75t7.275-6.2q0.55-0.65,1.55-1.95q0.95-1.1,2.1-1.1t1.15,1.1q0,0.2-2.25,3.55t-2.35,3.55q-1.55,3-4.75,8.75q-4.85,7.8-9.7,7.8q-1.6,0-2.8-1.375t-1.15-3.075z"/><path fill="#2caeba" d="M212.5595,70.55q0,1.8-0.8,3.4q-1.7,3.6-6.5,6t-10,2.4q-7.9,0-10.75-5.4q-5.15,4.3-7.35,4.3q-0.4,0-0.7-0.15q-1.5-0.8-1.5-3.45t2.2-6.5t3.85-4.55q0.75-0.25,1.15-0.25q1.45,0,2.2,2.4l1.5,4.8q1.45-1.55,3.95-4.95l4.45-6q8.2-10.65,10.75-11.65q0.9-0.35,1.85-0.35t1.575,0.4t0.625,1q0,0.9-1.45,1.05q-1.5,0.85-5.725,4.975t-5.025,5.225q-5.6,7.8-10.35,12q3.05,6.05,9.15,6.05q3.7,0,7.35-2.325t5.45-5.725q0.8-1.45,0.8-3.25t-1.425-3.425t-3.575-2.375q-1-0.15-3.2-0.425t-2.2-0.925q0-0.25,0.2-0.45q0.6-0.7,1.55-0.7q0.55,0,1.075,0.2t0.825,0.3t0.7,0.25q1.1,0.1,1.9,0.1q3.3,0,6-1.05q3.45-1.35,4.4-4.05q0.6-1.75,0.6-3.15q0-3.45-3.35-5.15q-2.9-1.5-7.95-1.5q-7.95,0-14.25,3q-3.2,1.5-6.075,4.45t-2.875,5.05q0,1.45,0.75,2.4q0.3,0.4,1.05,1q0.25,0.15-0.3,0.15q-3.1-0.7-3.1-4.15t3.5-6.5q2.6-2.25,5.85-3.65q6.75-2.9,15.35-2.9q6.15,0,9.8,1.8q4.25,2,4.25,6.05q0,1.6-0.65,3.25q-1.05,3-5.45,4.55q-3.3,1.15-7.1,1.2q2.95,0.15,4.975,2.175t2.025,5.025z M180.6095,68.7q-0.05,0-0.25,0.1q-3.7,5.35-3.7,8.6q0,1.35,0.65,2.45q0.15,0.25,0.5,0.25q1.6,0,6.15-4.55l-0.15-0.2q-2-6.65-3.2-6.65z M227.418,80.25q-3.75,0-3.75-4.15q0-2.1,1.1-4.6t2.4-4.2q-0.25,0.05-0.65,0.05q-1.2,0-2-1.7l-3.7,4.8q-3.1,3.85-3.6,3.85q-0.25,0-0.25-0.2q0-0.5,0.85-1.45q4.35-5.05,6.15-8.55q1.15-4.35,2.9-4.35q1.15,0,1.15,1t-1.25,2.55l-1.2,1.6q0,1.05,1.55,1.05q0.9,0,2-0.65l1.3-0.8q0.1-0.05,0.5-0.05t0.85,0.5t0.3,0.9l-3.45,4.35q-3.2,4.1-3.2,6.475t2.2,2.375q2.3,0,5.65-2.45q2-1.45,3.65-3.25q1.55-1.8,1.7-1.8q0.35,0,0.35,0.375t-0.45,0.875l-1.6,1.8q-1.35,1.4-3,2.7q-3.95,2.95-6.5,2.95z M255.7265,65.05l0.7-0.15q0.55,0,1.05,0.45t0.5,0.7t-3.1,4.825t-3.1,6.375q0,0.15,0.05,0.3q0.25,1.15,1.1,1.15q2.6,0,9.5-8.6q0.15-0.2,0.35-0.2t0.2,0.375t-0.45,0.975q-6.4,8.55-9.75,8.55q-0.45,0-0.85-0.15q-2.2-0.85-2.2-3.3q0-0.85,0.2-1.7l-3.1,3q-2.95,2.6-4.275,2.6t-2.525-0.85q-1.35-1-1.35-2.65q0-3.65,5.1-8.725t9.35-5.075q1.65,0,2.2,1.15q0.15,0.4,0.25,0.675t0.15,0.275z M240.7765,77.35q0,1.8,1.25,1.8q2.9,0,7.9-6.35l5.3-7.3q-0.4-0.7-1.3-0.7q-3.05,0-8.1,4.725t-5.05,7.825z M285.835,79.4q-3.4,0-3.4-3.15q0-1.8,1.6-4.925t3.35-5.275q-3.1,1.5-7.15,5.425t-5.65,8.225q-0.25,0.4-0.85,0.4q-1.2,0-1.2-1.35q0.5-2.75,2.25-6.3q0.55-1.15,3.25-6.7q-3.9,2.55-6.625,5.475t-5.05,5.875t-2.625,2.95q-0.65,0-1.125-0.6t-0.475-1.2q0-0.9,2.6-6.6l-3,3.15q-1.1,1.1-1.375,1.1t-0.275-0.325t0.4-0.725q1.85-1.85,3.3-3.7t4.8-6.6q0.55-0.75,1.55-0.75t1,0.95q0,0.35-2.65,4.875t-2.95,5.675q2.05-2.25,6.15-6.05q6.15-5.7,8.1-5.7q0.6,0,1.1,0.35t0.5,0.775t-1.95,3.775q-1.9,3.45-2.1,4.1q5.55-4.65,5.55-4.7q4.7-3.65,6.75-3.65q0.6,0,1.125,0.375t0.525,0.875q0,0.1-3.25,4.225t-3.65,6.775q-0.1,0.9,0.35,1.35t1.625,0.45t3.45-1.625t4.625-4.375q0.9-1,1.225-1t0.325,0.25q0,0.35-0.45,0.8q-2.45,2.95-5.275,5.025t-4.425,2.075z M307.0935,67.55q0-3.4,2.1-3.4q0.2,0,0.45,0.05q0.85,0.15,0.85,1.3t-0.4,2.9q-0.4,1.3-0.55,1.95q0.15,0.85,0.825,2.175t1.85,1.325t2.625-1.6q0.3-0.35,0.575-0.35t0.3,0.325t-0.375,0.875q-1.55,1.85-3.25,1.85q-2.45,0-3.95-3.6q-1.55,3.55-4.4,6.125t-5.65,2.575q-2.65,0-2.65-4q0-3.15,5.875-11.6t8.975-8.45q0.65,0,1.175,0.4t0.525,0.95q0-0.05-0.725,0.75t-3.95,4.3t-6.325,7.7t-3.1,6.5q0,0.6,0.325,1.3t1.075,0.7q2.2,0,5.15-3.4q2.45-3,3-5.05q-0.35-1.05-0.35-2.6z M332.752,65.05l0.7-0.15q0.55,0,1.05,0.45t0.5,0.7t-3.1,4.825t-3.1,6.375q0,0.15,0.05,0.3q0.25,1.15,1.1,1.15q2.6,0,9.5-8.6q0.15-0.2,0.35-0.2t0.2,0.375t-0.45,0.975q-6.4,8.55-9.75,8.55q-0.45,0-0.85-0.15q-2.2-0.85-2.2-3.3q0-0.85,0.2-1.7l-3.1,3q-2.95,2.6-4.275,2.6t-2.525-0.85q-1.35-1-1.35-2.65q0-3.65,5.1-8.725t9.35-5.075q1.65,0,2.2,1.15q0.15,0.4,0.25,0.675t0.15,0.275z M317.802,77.35q0,1.8,1.25,1.8q2.9,0,7.9-6.35l5.3-7.3q-0.4-0.7-1.3-0.7q-3.05,0-8.1,4.725t-5.05,7.825z M342.5605,79q1.65,0,4.25-1.75t5.05-4.75q0.6-0.8,0.95-0.8t0.35,0.3t-2.05,2.6q-5,5.5-8.35,5.5q-1.65,0-2.8-0.775t-1.15-2.4t0.85-3.775q1.45-3.4,4.65-8.55q5.85-9.5,8.3-9.5q0.5,0,1.025,0.375t0.575,0.825q-1.15,1.55-4.425,5.95t-4.525,6.325t-1.875,2.875t-0.925,1.475t-0.7,1.375q-0.85,1.7-0.85,3.2t1.65,1.5z M366.369,69.4q0,1.75-3.35,5.85q-3.95,4.85-6.75,4.85l-0.8,0q-1.3,0-2.05-1.35q-0.6-0.95-0.6-2.1q0-3,4.375-8.425t7.075-5.425q2.55,0,2.55,2.7q0,0.7-0.25,1.8q0.05,0.15,0.95,0.15t2.75-0.95q-0.05,0.85-3.95,2.45q0.05,0.2,0.05,0.45z M363.119,66.8q-1.7,0-4.825,4t-3.125,5.9t1.2,1.9q2.15,0,5.45-3.9t3.3-5.6q-0.8-0.45-2-2.3z M383.1275,60.35q1.5,0,2.55,1t1.05,2.8q0,3.95-6.55,9.9q-5.55,5-8.95,6.1q-0.55,0-1.45-0.6t-0.9-1.1q0-1.1,2.4-7.45t3.3-7.1q0.2-0.2,0.65-0.2t0.95,0.475t0.55,1.125q0,0.05-2.475,5.8t-2.325,6.85q2.15-0.65,7.675-5.25t5.525-8.25q0-2.2-2.2-3.2q-0.35-0.15-0.35-0.45q0-0.45,0.55-0.45z"/></svg>
